<svg width="87" height="95" viewBox="0 0 87 95" fill="none" xmlns="http://www.w3.org/2000/svg">
<path fill-rule="evenodd" clip-rule="evenodd" d="M62.0111 8.42594C59.3869 10.7749 56.6394 12.4826 54.561 13.056C53.7944 13.2676 53.1668 13.5831 53.1668 13.7571C53.1668 13.9315 53.7944 14.1915 54.561 14.3353C56.8721 14.769 59.6583 16.2964 62.0683 18.4516C63.912 20.0998 64.5988 20.4902 65.6528 20.4902C67.25 20.4902 68.8926 19.0358 68.7127 17.7814C68.6234 17.1618 68.9224 16.7595 69.8901 16.1973C72.3284 14.7805 72.3291 12.0441 69.8916 10.6262C68.8554 10.0234 68.619 9.67621 68.7097 8.89125C68.8573 7.61527 67.292 6.33333 65.5859 6.33333C64.6084 6.33333 63.8578 6.77294 62.0111 8.42594ZM63.9388 7.33362C63.4332 7.67898 62.0992 8.79551 60.9745 9.81443C59.8498 10.8333 57.938 12.1373 56.726 12.7121C54.9957 13.5328 54.6763 13.8059 55.2388 13.9844C57.5599 14.7213 60.3759 16.3374 62.091 17.9174C63.1729 18.9143 64.3801 19.8323 64.7739 19.9574C66.6626 20.558 68.8666 18.6878 68.0568 17.1715C67.701 16.505 67.7783 16.3802 68.6811 16.166C70.156 15.8166 71.3848 14.5644 71.3848 13.4118C71.3848 12.2598 70.1459 10.9671 68.6967 10.6068C67.8382 10.3934 67.74 10.2455 68.059 9.6479C68.7246 8.40209 67.2738 6.70588 65.5431 6.70588C65.1661 6.70588 64.4441 6.98827 63.9388 7.33362ZM63.5254 8.92888C63.0424 9.3316 62.8231 9.6669 63.038 9.67398C63.2525 9.68068 63.6135 9.50074 63.8399 9.27386C64.0663 9.04698 64.811 8.72882 65.4944 8.56676L66.7373 8.27245L65.5703 8.23407C64.907 8.21247 64.024 8.51237 63.5254 8.92888ZM45.3305 10.7752C44.2805 11.8273 44.2437 11.9853 44.2437 15.4321V19H42.7565H41.2694V22.5172V26.0348L39.0531 27.2184C34.1008 29.8635 30.4988 35.3013 30.1929 40.5944L30.0289 43.4325L27.7487 41.148C25.7637 39.1597 23.0035 37.5511 22.4789 38.0771C22.3959 38.1602 22.5116 38.8893 22.7358 39.6973C23.0075 40.6764 23.0395 42.2854 22.8309 44.5196C22.6592 46.3637 22.5127 49.3169 22.506 51.0824L22.4937 54.2919L21.2984 53.7205C20.299 53.2428 19.8536 53.2235 18.585 53.6046C15.4858 54.5348 14.6786 58.2909 17.1098 60.4677C18.2229 61.4646 18.436 61.5105 21.6051 61.4408C23.4347 61.4005 25.0405 61.4769 25.1736 61.6103C25.3067 61.7437 24.2148 62.9824 22.7465 64.3631C20.2284 66.7314 20.0771 66.9653 20.0771 68.4935C20.0771 69.8395 20.2912 70.3283 21.3412 71.3804C22.7729 72.8151 24.2196 73.0241 26.0734 72.0637C27.7922 71.1729 28.3514 69.4241 28.0446 65.9006C27.7245 62.2216 28.209 62.0506 30.5052 65.0329C32.3998 67.4936 33.2903 68.1765 34.6049 68.1765C35.1429 68.1765 38.1589 68.7804 41.3077 69.5184L47.0322 70.8603L54.8399 70.4095C59.1341 70.1614 62.6929 69.917 62.7487 69.8664C62.8045 69.8157 61.5497 69.2163 59.9602 68.5345C58.3708 67.8524 57.0179 67.2581 56.9532 67.2142C56.8888 67.1702 58.4418 62.6158 60.4042 57.0931C62.3669 51.5705 64.1377 46.0225 64.34 44.7644C65.4096 38.1084 61.6092 30.6224 55.4507 27.2564L53.459 26.1678L53.4059 22.6771L53.3527 19.1863L51.7726 19.0719L50.1924 18.9572L50.1805 15.3464C50.1683 11.5982 49.9426 10.9157 48.451 10.1195C47.1954 9.4497 46.5094 9.59388 45.3305 10.7752ZM44.6155 16.707V19H47.2181H49.8207V16.951C49.8207 15.0543 49.4448 14.3767 48.8912 15.2745C48.5223 15.8721 46.0376 15.7037 45.2955 15.0305C44.6438 14.4396 44.6155 14.5093 44.6155 16.707ZM41.6412 22.7255V26.0784H47.2181H52.795V22.7255V19.3725H47.2181H41.6412V22.7255ZM39.3074 27.6662C33.5174 30.9182 30.2107 36.7069 30.5959 42.9162C30.7892 46.034 31.5492 49.1765 32.1098 49.1765C32.6727 49.1765 34.5771 51.0992 34.5771 51.6677C34.5771 52.1524 35.3809 52.3446 35.7716 51.9534C35.8832 51.8417 35.4757 50.2069 34.8663 48.3211C33.6264 44.4857 33.6089 41.7825 34.8039 38.7075C35.7497 36.2732 37.8299 33.567 38.9776 33.2783C39.5216 33.1416 41.4727 33.2459 43.3135 33.5108C48.5108 34.2574 53.0973 34.4135 54.8034 33.9012C56.2813 33.4575 56.3308 33.4728 57.3562 34.7C57.931 35.3881 58.8471 36.873 59.3918 38C60.2198 39.7134 60.3845 40.5676 60.3978 43.2157C60.4131 46.2315 60.283 46.7463 57.6711 54.0196C56.1624 58.2201 54.8488 61.8666 54.7514 62.1226C54.6179 62.4735 52.7593 62.5882 47.2092 62.5882H39.8443L39.5342 61.6688C39.3163 61.0213 39.0758 60.8421 38.7215 61.0626C38.3348 61.3033 38.3132 61.554 38.6285 62.1438C39.1739 63.1649 39.1516 65.6789 38.5924 66.2392C38.2456 66.5868 40.1782 66.6863 47.2898 66.6863C55.6537 66.6863 56.455 66.6308 56.6866 66.0343C56.826 65.6755 58.4749 61.1074 60.3514 55.8824L63.763 46.3824V42.2843C63.763 38.3491 63.7098 38.0749 62.4275 35.3843C60.7838 31.9356 58.1645 29.1561 55.0942 27.6033C52.8426 26.4644 52.7504 26.451 47.1359 26.4554L41.4553 26.4599L39.3074 27.6662ZM37.7303 34.8155C36.1498 36.4945 35.0009 38.9183 34.6072 41.4036C34.2142 43.8855 34.3867 45.2371 35.5619 48.884L36.4885 51.7582L38.8828 50.8552C41.4051 49.9037 44.4352 48.0186 44.7181 47.2251C45.1104 46.1238 45.5435 47.5648 45.5246 49.9089C45.4989 53.1229 43.9355 56.5321 41.424 58.8516C40.0406 60.1294 39.7621 60.5944 39.9439 61.3208L40.1681 62.2157H47.1865H54.2049L55.769 57.8382C59.9149 46.2348 59.9528 46.1048 59.9547 43.402C59.9573 40.3795 59.0534 37.6654 57.3108 35.4607L56.1702 34.0174L53.9286 34.6027C51.8153 35.1545 51.3517 35.1399 45.8276 34.3468C42.6049 33.8841 39.7368 33.5112 39.4543 33.5175C39.1717 33.5242 38.3958 34.108 37.7303 34.8155ZM23.1912 42.5898C23.1659 44.6757 23.0838 48.1426 23.009 50.2941C22.8625 54.4942 23.08 55.2509 25.0699 57.4657C26.5415 59.1042 26.8147 58.8005 26.7463 55.6029C26.7125 54.0151 26.798 52.1289 26.9367 51.4118C27.568 48.1423 25.7514 41.0791 23.8303 39.3352C23.2916 38.8461 23.2332 39.143 23.1912 42.5898ZM56.3936 39.6765C56.5617 40.2912 56.6821 42.3868 56.6613 44.3333C56.6323 47.1036 56.404 48.548 55.6117 50.9811C55.0552 52.6907 54.6834 54.1731 54.7856 54.2755C54.8878 54.378 55.4362 53.0633 56.0043 51.3536C56.8911 48.684 57.0394 47.6296 57.0539 43.887C57.0658 40.7505 56.9331 39.393 56.5795 39.0439C56.1735 38.6426 56.1415 38.7522 56.3936 39.6765ZM43.1283 49.1847C42.4126 49.7822 40.3261 50.8254 38.4921 51.503C35.4307 52.6341 35.1281 52.8364 34.8042 53.9678C34.5771 54.761 33.6126 55.9431 32.0976 57.2839C30.803 58.4298 29.7437 59.5892 29.7437 59.8604C29.7437 60.8451 31.4882 60.3138 33.9357 58.5833C35.3125 57.6099 37.5916 56.0794 39.0003 55.1823C41.485 53.5994 43.615 51.2531 44.5363 49.0833C45.0844 47.7924 44.7683 47.8152 43.1283 49.1847ZM28.2279 50.638C27.2973 51.5705 27.1419 52.0119 27.1453 53.7115C27.156 59.0039 28.1023 59.9469 31.045 57.5979C33.7145 55.467 34.1893 54.7852 34.1852 53.0882C34.1815 51.4729 33.7297 50.6581 32.4638 49.9823C31.0145 49.2089 29.4058 49.4581 28.2279 50.638ZM28.6555 52.0209C28.2316 52.5607 27.8967 53.441 27.9108 53.9768C27.9338 54.8254 28.0056 54.764 28.4677 53.4999C28.7596 52.7019 29.1868 51.8216 29.4165 51.544C29.6467 51.2665 29.7426 51.0392 29.6303 51.0392C29.518 51.0392 29.079 51.4811 28.6555 52.0209ZM18.3352 54.1914C16.8532 54.8385 15.8546 56.6632 16.1769 58.1348C16.5223 59.7096 18.3385 61.098 20.0536 61.098C23.2355 61.098 24.8134 60.6763 25.2532 59.7088C25.638 58.8631 25.4934 58.5759 23.5879 56.4009C22.4402 55.0914 21.2783 54.0196 21.0054 54.0196C20.7329 54.0196 20.2868 53.9417 20.0146 53.8467C19.7421 53.7521 18.9866 53.9071 18.3352 54.1914ZM17.8463 58.3989C17.8463 59.0632 18.8624 59.6403 20.3228 59.8053L21.7501 59.9666L20.4083 59.508C19.6703 59.2554 18.7921 58.8188 18.4564 58.5379C18.121 58.2566 17.8463 58.194 17.8463 58.3989ZM26.1291 59.3284C24.8978 60.9229 25.738 62.7015 27.6349 62.516C29.1976 62.3632 29.8556 60.7609 28.8243 59.619C28.0584 58.7711 26.6746 58.6217 26.1291 59.3284ZM31.5454 60.6253C30.0519 60.7445 29.782 60.8939 29.5764 61.7154C29.2965 62.8326 29.8214 63.7416 32.1589 66.1863C33.726 67.8248 33.8788 67.8959 35.398 67.6918C40.4276 67.0156 39.3238 60.0672 34.2428 60.42C33.7108 60.4569 32.4972 60.5493 31.5454 60.6253ZM34.9485 62.2615C35.4597 62.466 36.2546 62.9876 36.7145 63.4205C37.1748 63.8538 37.5514 64.0229 37.5514 63.796C37.5514 63.2123 35.5255 61.8387 34.7057 61.8666C34.183 61.8849 34.241 61.9791 34.9485 62.2615ZM23.3005 64.3213C20.2384 66.7619 19.6633 68.6738 21.3772 70.715C22.5592 72.1229 23.8099 72.434 25.4785 71.7354C27.2189 71.0067 27.7751 69.5203 27.5948 66.0809C27.4691 63.685 27.3661 63.3859 26.5374 63.0074C26.0321 62.7767 25.5852 62.5894 25.5436 62.5908C25.5019 62.5927 24.4929 63.371 23.3005 64.3213ZM26.2147 68.5393C26.0868 68.9439 25.548 69.6167 25.0175 70.0347C24.4873 70.4528 24.1423 70.8838 24.2508 70.9926C24.5475 71.2899 26.7694 68.9447 26.7694 68.3341C26.7694 67.5756 26.4868 67.6799 26.2147 68.5393ZM9.29501 75.3492C8.78379 75.6167 8.14059 76.3059 7.86546 76.8807C7.07391 78.5348 7.62045 80.2553 9.65045 82.5014C11.77 84.8469 12.2114 85.9042 11.4068 86.71C10.6309 87.4879 9.6668 87.0304 9.6668 85.8841C9.6668 85.0846 9.49689 84.9412 8.55142 84.9412C7.57174 84.9412 7.43604 85.0708 7.43604 86.0085C7.43604 87.7573 8.71613 89.0392 10.4617 89.0392C12.4765 89.0392 13.2859 88.5262 13.7123 86.9786C14.2324 85.0913 13.6989 83.7136 11.5269 81.3323C10.0895 79.7564 9.65491 79.0128 9.74005 78.2766C9.89174 76.9653 11.6477 76.8524 11.8307 78.1422C11.9136 78.7297 12.2013 78.9804 12.791 78.9804C13.2539 78.9804 13.729 78.8839 13.8465 78.7662C14.1477 78.464 13.4885 76.3167 12.9193 75.7467C12.1883 75.0139 10.3264 74.8097 9.29501 75.3492ZM17.9608 75.2445C16.2026 75.9844 15.9193 77.0554 16.0509 82.4611C16.1557 86.7603 16.274 87.5844 16.8815 88.2561C17.6526 89.1089 19.9507 89.3324 21.1779 88.6745C21.9587 88.2557 22.6796 86.437 22.6796 84.8857C22.6796 83.9584 22.5406 83.8235 21.5854 83.8235C20.5645 83.8235 20.4842 83.929 20.3771 85.4069C20.2756 86.817 20.1611 86.9902 19.3335 86.9902H18.404V82.1471V77.3039H19.3335C20.1105 77.3039 20.2819 77.5029 20.3793 78.5147C20.4831 79.5918 20.6217 79.7255 21.6353 79.7255C22.767 79.7255 22.7729 79.7147 22.525 78.1422C22.3878 77.2711 21.9892 76.2694 21.6397 75.9158C20.8511 75.1186 19.0438 74.7885 17.9608 75.2445ZM52.1685 75.2575C50.7955 75.8119 50.5642 76.8286 50.5642 82.3087C50.5642 87.0524 50.6349 87.6198 51.3078 88.2941C52.3946 89.3831 55.0057 89.319 56.0765 88.1771C56.8245 87.3788 56.8848 86.9373 56.8848 82.2465C56.8848 79.4591 56.7807 76.9072 56.6539 76.5756C56.3806 75.8622 54.6001 74.8723 53.6501 74.9058C53.2821 74.9189 52.6154 75.0772 52.1685 75.2575ZM24.9104 82.1471V89.0392H27.8848C30.8097 89.0392 30.8591 89.0236 30.8591 88.1078C30.8591 87.2387 30.7353 87.1765 29.0001 87.1765H27.1412V85.1498V83.1235L28.5354 83.0077C29.7441 82.9074 29.9296 82.7681 29.9296 81.9608C29.9296 81.1535 29.7441 81.0141 28.5354 80.9139L27.1412 80.7981V78.958V77.1176H29.0001C30.7353 77.1176 30.8591 77.0554 30.8591 76.1863C30.8591 75.2706 30.8097 75.2549 27.8848 75.2549H24.9104V82.1471ZM33.0899 82.1247V89.0392H34.0082H34.9265L35.0307 84.2892L35.1348 79.5392L36.429 84.3064L37.7236 89.0735L38.8456 88.9632L39.9681 88.8529L40.0696 82.0539L40.1707 75.2549H39.0472H37.9232L37.8916 78.8873L37.86 82.5196L36.8629 78.9804L35.8653 75.4412L34.4778 75.3257L33.0899 75.2098V82.1247ZM42.013 76.1863C42.013 76.9727 42.1866 77.1176 43.1283 77.1176H44.2437V83.0784V89.0392H45.3591H46.4745V83.0784V77.1176H47.5899C48.5316 77.1176 48.7053 76.9727 48.7053 76.1863C48.7053 75.262 48.6804 75.2549 45.3591 75.2549C42.0379 75.2549 42.013 75.262 42.013 76.1863ZM59.4873 82.1471V89.0392H60.6027H61.7181V86.4314V83.8235H62.8502C63.557 83.8235 64.3259 83.4797 64.8951 82.9089C65.6744 82.1284 65.8078 81.6452 65.8078 79.6063C65.8078 77.7543 65.6349 76.9977 65.0371 76.2366C64.3474 75.3581 64.0158 75.2549 61.8768 75.2549H59.4873V82.1471ZM68.0386 82.1471V89.0392H69.154H70.2694V82.1471V75.2549H69.154H68.0386V82.1471ZM74.1966 76.0931C74.0996 76.5544 73.6691 79.1946 73.24 81.9608C72.811 84.727 72.3693 87.4641 72.2585 88.043C72.0718 89.0176 72.135 89.0865 73.1132 88.9744C73.9587 88.8772 74.2078 88.6298 74.361 87.7353C74.5309 86.7436 74.6986 86.6177 75.85 86.6177C77.0424 86.6177 77.1569 86.716 77.2639 87.8284C77.3666 88.8932 77.5123 89.0392 78.4723 89.0392C79.0976 89.0392 79.5646 88.8403 79.565 88.5735C79.5657 88.3176 79.114 85.2161 78.5615 81.6814L77.5569 75.2549H75.9653C74.6145 75.2549 74.3465 75.3819 74.1966 76.0931ZM52.6489 77.707C52.5247 78.0311 52.4232 80.1062 52.4232 82.3181C52.4232 86.501 52.7913 87.5434 54.0915 87.0435C54.5536 86.8658 54.654 85.9623 54.654 81.9723V77.1176H53.7643C53.275 77.1176 52.7731 77.3829 52.6489 77.707ZM61.7181 79.5392C61.7181 81.8911 61.7594 82.0066 62.5546 81.8937C63.3161 81.7853 63.3912 81.5737 63.3912 79.5392C63.3912 77.5047 63.3161 77.2931 62.5546 77.1847C61.7594 77.0718 61.7181 77.1873 61.7181 79.5392ZM75.3288 80.7247C75.1908 81.8997 74.9819 83.2453 74.864 83.7147C74.6777 84.4591 74.79 84.5686 75.7366 84.5686H76.823L76.4278 81.8017C76.2103 80.2802 75.9303 78.9346 75.8058 78.812C75.6812 78.6891 75.4663 79.5497 75.3288 80.7247Z" fill="#FC417B"/>
</svg>
